<?xml version="1.0" standalone="no"?>
<!DOCTYPE svg PUBLIC "-//W3C//DTD SVG 20010904//EN"
 "http://www.w3.org/TR/2001/REC-SVG-20010904/DTD/svg10.dtd">
<svg version="1.0" xmlns="http://www.w3.org/2000/svg"
 width="512.000000pt" height="512.000000pt" viewBox="0 0 512.000000 512.000000"
 preserveAspectRatio="xMidYMid meet">

<g transform="translate(0.000000,512.000000) scale(0.100000,-0.100000)"
fill="#000000" stroke="none">
<path d="M2535 4810 c-44 -18 -64 -56 -109 -215 -50 -174 -52 -183 -34 -231
10 -28 7 -43 -34 -145 -171 -426 -374 -815 -527 -1009 -97 -123 -128 -171
-173 -266 l-39 -85 -27 22 c-70 55 -60 54 -570 57 -448 3 -478 2 -554 -17
-177 -45 -308 -162 -376 -337 l-27 -69 -3 -593 c-2 -442 0 -597 9 -608 9 -11
60 -14 269 -14 l258 0 10 -42 c6 -24 54 -243 107 -488 54 -245 102 -451 107
-457 8 -10 213 -13 963 -13 750 0 955 3 962 13 6 6 128 551 272 1210 210 958
260 1201 251 1212 -10 13 -61 15 -301 15 l-289 0 0 35 c0 20 -7 95 -16 168
-30 245 -8 633 61 1084 33 213 32 208 60 221 33 15 45 44 95 219 64 230 54
252 -151 308 -127 36 -159 40 -194 25z m172 -102 c72 -20 118 -38 123 -49 7
-11 -4 -64 -35 -170 -43 -151 -62 -186 -93 -174 -19 7 -52 -13 -52 -30 0 -9 5
-24 12 -34 8 -14 6 -47 -10 -147 -30 -182 -59 -413 -73 -591 -6 -84 -15 -153
-18 -153 -36 0 -80 26 -104 61 -50 72 -149 98 -232 60 -32 -14 -47 -15 -75 -7
-19 5 -36 11 -38 12 -2 1 34 75 79 165 89 179 184 388 244 542 21 53 43 97 49
97 6 0 26 -4 44 -9 28 -8 36 -7 53 10 29 29 10 54 -55 73 -36 11 -57 23 -61
35 -5 18 65 284 86 323 13 24 24 23 156 -14z m-347 -1303 c58 -30 77 -110 38
-160 -49 -63 -127 -66 -178 -8 -83 94 27 226 140 168z m-243 -3 c8 -5 8 -21 1
-59 l-10 -51 -45 13 c-25 8 -47 15 -49 17 -1 2 8 23 22 46 25 41 52 53 81 34z
m434 -122 c15 -8 19 -22 19 -60 0 -33 -4 -50 -12 -50 -23 0 -88 21 -88 28 0 3
7 26 16 49 17 44 31 51 65 33z m-482 -59 c46 -13 81 -29 96 -45 46 -50 121
-73 182 -57 38 10 74 4 204 -35 12 -3 18 -31 28 -122 7 -64 13 -137 14 -162
l2 -45 -458 -3 -457 -2 6 27 c26 111 83 225 161 324 32 41 71 91 86 112 19 25
34 36 45 33 9 -3 50 -14 91 -25z m-1349 -393 c-42 -64 -62 -123 -67 -193 -4
-58 -2 -73 11 -84 13 -11 22 -11 40 -3 20 9 24 20 28 76 8 93 47 169 106 207
l46 29 243 0 243 0 0 -740 0 -740 -85 0 -84 0 -3 88 -3 87 -35 0 -35 0 -3 -87
-3 -88 -99 0 -99 0 -3 88 c-3 84 -4 87 -27 90 -38 6 -51 -22 -51 -105 l0 -73
-95 0 -95 0 0 79 c0 85 -10 105 -52 99 -22 -3 -23 -8 -26 -90 l-3 -88 -99 0
-99 0 -3 88 -3 87 -29 3 c-39 5 -46 -10 -46 -100 l0 -78 -75 0 -75 0 0 538 c0
586 1 601 58 706 15 27 47 70 72 96 94 96 207 138 373 139 l99 1 -22 -32z
m800 7 c29 -15 70 -60 70 -77 0 -5 -30 -8 -67 -6 l-68 3 -3 48 c-3 42 -1 47
18 47 12 0 34 -7 50 -15z m1660 -197 c-4 -18 -16 -68 -25 -110 l-16 -78 -468
0 c-474 0 -491 -1 -491 -36 0 -7 7 -20 16 -28 14 -14 70 -16 471 -16 l455 0
-5 -22 c-3 -13 -92 -416 -197 -897 -105 -481 -193 -878 -196 -883 -3 -4 -76
-8 -164 -8 -137 0 -159 -2 -164 -16 -10 -26 2 -51 27 -58 12 -3 82 -6 156 -6
111 0 132 -2 128 -14 -3 -8 -9 -31 -13 -50 l-6 -36 -903 0 c-852 0 -904 1
-909 18 -2 9 -7 32 -11 49 l-7 33 624 0 c343 0 633 3 645 6 25 7 36 29 28 55
-6 18 -32 19 -661 19 -360 0 -654 1 -654 3 0 4 -149 685 -156 714 l-6 23 383
2 384 3 3 683 2 682 869 0 869 0 -8 -32z"/>
<path d="M2800 2138 c-5 -13 -64 -286 -130 -608 -117 -571 -119 -585 -101
-603 15 -16 22 -17 40 -8 11 6 23 22 26 34 29 122 235 1145 235 1166 0 44 -53
58 -70 19z"/>
<path d="M3456 2837 c-17 -12 -21 -77 -52 -811 -23 -560 -30 -813 -24 -848 15
-75 43 -132 96 -188 59 -63 101 -89 178 -110 l61 -17 3 -242 2 -241 -159 0
c-132 0 -162 -3 -175 -16 -19 -18 -19 -20 -6 -45 10 -18 25 -19 374 -19 314 0
365 2 376 15 10 12 10 21 2 40 l-12 25 -160 0 -160 0 0 244 0 243 38 6 c87 15
196 94 248 182 13 22 30 67 39 100 14 55 12 123 -19 864 -31 745 -35 805 -52
818 -26 19 -572 19 -598 0z m548 -264 c3 -104 9 -245 13 -315 l6 -126 -40 -20
c-66 -34 -100 -35 -192 -7 -97 29 -165 32 -240 9 -29 -8 -55 -13 -58 -11 -2 3
1 152 8 331 l12 326 242 0 242 0 7 -187z m-248 -542 c99 -35 168 -34 255 3 14
6 17 -33 30 -361 8 -202 13 -397 13 -433 -2 -90 -33 -158 -99 -219 -153 -139
-385 -91 -474 99 -31 66 -31 73 -12 553 l14 337 61 20 c79 25 143 25 212 1z"/>
<path d="M3605 1904 c-19 -20 -16 -43 8 -58 37 -23 77 35 41 61 -23 17 -29 16
-49 -3z"/>
<path d="M3835 1864 c-19 -20 -16 -43 8 -58 37 -23 77 35 41 61 -23 17 -29 16
-49 -3z"/>
<path d="M3735 1697 c-10 -8 -16 -23 -13 -38 2 -19 9 -24 33 -24 25 0 31 4 33
27 4 34 -26 54 -53 35z"/>
<path d="M3570 1655 c-26 -32 13 -81 48 -59 23 15 26 38 7 58 -20 20 -39 20
-55 1z"/>
<path d="M3910 1545 c-19 -23 -3 -55 30 -55 30 0 44 21 35 51 -8 23 -47 25
-65 4z"/>
<path d="M3660 1426 c-6 -8 -10 -25 -8 -38 4 -30 46 -38 65 -12 17 23 16 29
-3 48 -19 20 -38 20 -54 2z"/>
<path d="M3848 1323 c-22 -6 -33 -40 -18 -58 27 -32 70 -13 70 30 0 18 -29 33
-52 28z"/>
<path d="M3572 1268 c-28 -28 -1 -75 37 -63 25 8 34 31 21 56 -12 21 -40 25
-58 7z"/>
<path d="M3705 1101 c-9 -30 5 -51 35 -51 30 0 44 21 35 51 -4 13 -16 19 -35
19 -19 0 -31 -6 -35 -19z"/>
<path d="M4377 2838 c-14 -12 -20 -99 -48 -763 -17 -412 -29 -790 -27 -840 5
-106 33 -178 97 -248 48 -51 139 -103 199 -113 l42 -7 0 -243 0 -244 -159 0
c-171 0 -186 -4 -179 -52 l3 -23 369 0 c340 0 370 1 380 18 8 12 8 22 0 35
-10 15 -32 17 -173 20 l-161 2 0 244 0 243 38 7 c136 22 259 146 292 293 16
70 -47 1628 -67 1661 -13 22 -14 22 -301 22 -215 0 -292 -3 -305 -12z m536
-78 c7 -6 32 -648 26 -654 -2 -2 -35 4 -74 14 -76 19 -120 16 -229 -15 -78
-23 -127 -21 -183 6 l-45 22 6 91 c3 50 8 165 11 256 3 91 8 193 11 228 l6 64
233 -4 c128 -2 236 -5 238 -8z m-29 -730 c48 -15 66 -26 66 -38 0 -9 7 -189
16 -399 14 -347 15 -386 0 -435 -38 -132 -153 -218 -292 -218 -75 0 -138 26
-198 81 -75 68 -99 128 -98 239 1 133 22 669 28 727 l5 53 31 -16 c55 -29 134
-29 218 0 92 31 138 32 224 6z"/>
<path d="M4496 1904 c-31 -30 -8 -69 36 -62 30 4 38 46 12 65 -23 17 -29 16
-48 -3z"/>
<path d="M4765 1866 c-25 -18 -16 -60 14 -64 31 -5 54 23 41 48 -13 24 -35 31
-55 16z"/>
<path d="M4496 1655 c-19 -20 -20 -26 -3 -49 26 -36 84 4 61 42 -15 23 -38 26
-58 7z"/>
<path d="M4645 1641 c-9 -30 5 -51 35 -51 30 0 44 21 35 51 -4 13 -16 19 -35
19 -19 0 -31 -6 -35 -19z"/>
<path d="M4797 1513 c-11 -11 -8 -48 5 -61 19 -19 36 -14 54 13 13 20 14 28 4
40 -13 15 -51 20 -63 8z"/>
<path d="M4576 1384 c-29 -29 -12 -64 31 -64 31 0 44 47 18 67 -24 17 -30 16
-49 -3z"/>
<path d="M4765 1317 c-10 -8 -16 -23 -13 -38 2 -19 9 -24 33 -24 25 0 31 4 33
27 4 34 -26 54 -53 35z"/>
<path d="M4490 1225 c-15 -19 -4 -52 21 -60 38 -12 65 35 37 63 -16 16 -43 15
-58 -3z"/>
<path d="M4711 1102 c-14 -27 8 -55 40 -50 19 2 24 9 24 33 0 25 -4 31 -27 33
-18 2 -30 -3 -37 -16z"/>
</g>
</svg>
