<?xml version="1.0" standalone="no"?>
<!DOCTYPE svg PUBLIC "-//W3C//DTD SVG 20010904//EN"
 "http://www.w3.org/TR/2001/REC-SVG-20010904/DTD/svg10.dtd">
<svg version="1.0" xmlns="http://www.w3.org/2000/svg"
 width="512.000000pt" height="512.000000pt" viewBox="0 0 512.000000 512.000000"
 preserveAspectRatio="xMidYMid meet">

<g transform="translate(0.000000,512.000000) scale(0.100000,-0.100000)"
fill="#000000" stroke="none">
<path d="M2021 5107 c-8 -10 -12 -187 -13 -598 l-3 -584 -640 -3 -640 -2 -233
-228 c-199 -193 -232 -230 -225 -247 4 -11 110 -120 235 -242 l227 -223 640 0
641 0 -2 -1317 -3 -1318 -259 -3 c-171 -1 -264 -6 -273 -13 -20 -17 -16 -46 9
-63 20 -14 152 -16 1220 -16 773 0 1206 4 1223 10 22 8 26 15 23 42 l-3 33
-580 5 -580 5 -3 778 -2 777 471 0 471 0 87 82 c248 237 381 374 381 394 0 14
-74 92 -229 242 l-229 222 -474 2 -473 3 -3 318 -2 317 796 0 c513 0 802 4
814 10 31 17 460 588 460 613 0 14 -86 136 -224 317 l-225 295 -808 5 -808 5
-3 184 c-1 115 -7 189 -13 198 -17 19 -731 19 -748 0z m669 -232 l0 -155 -109
0 c-86 0 -113 -3 -125 -16 -14 -14 -16 -82 -16 -601 0 -532 2 -588 17 -605 14
-15 32 -18 125 -18 l108 0 0 -320 0 -320 -158 0 c-110 0 -162 -4 -170 -12 -9
-9 -12 -124 -12 -454 l0 -443 22 -15 c18 -13 53 -16 170 -16 l148 0 0 -780 0
-780 -295 0 -295 0 0 1320 0 1320 84 0 c64 0 88 4 100 16 14 14 16 69 16 458
0 330 -3 445 -12 454 -8 8 -45 12 -100 12 l-88 0 0 555 0 555 295 0 295 0 0
-155z m1860 -504 c107 -142 195 -264 195 -270 0 -6 -89 -128 -199 -271 l-198
-260 -907 2 -906 3 -3 528 -2 527 912 -1 913 0 195 -258z m-3222 -624 c-49
-45 -88 -90 -88 -99 0 -21 26 -48 47 -48 13 0 216 187 236 218 5 8 34 12 85
12 l76 0 -87 -82 c-48 -46 -87 -91 -87 -100 0 -23 29 -50 51 -46 10 2 70 54
132 116 l115 112 201 0 201 0 0 -380 0 -380 -722 0 -723 1 -195 191 -195 190
193 189 193 189 327 0 327 0 -87 -83z m2560 -1185 l194 -187 -195 -192 -194
-193 -83 0 -83 0 66 69 c37 38 67 75 67 82 0 18 -30 49 -48 49 -8 0 -60 -45
-117 -100 l-103 -100 -476 0 -476 0 0 380 0 380 628 0 627 0 193 -188z"/>
<path d="M2222 4888 c-8 -8 -12 -56 -12 -148 0 -143 5 -160 45 -160 40 0 45
17 45 160 0 143 -5 160 -45 160 -12 0 -26 -5 -33 -12z"/>
<path d="M2226 4464 c-19 -19 -22 -114 -4 -132 7 -7 21 -12 33 -12 34 0 45 20
45 82 0 46 -4 59 -19 68 -27 14 -37 13 -55 -6z"/>
<path d="M2490 1101 c-6 -12 -10 -115 -10 -264 0 -231 1 -245 20 -262 17 -15
24 -16 45 -7 l25 12 0 258 c0 187 -3 261 -12 270 -18 18 -56 14 -68 -7z"/>
<path d="M2634 4495 c-15 -23 -15 -27 0 -50 28 -43 76 -27 76 25 0 52 -48 68
-76 25z"/>
<path d="M3236 4435 c-101 -36 -166 -132 -166 -245 0 -96 38 -167 145 -273 91
-91 259 -216 290 -217 35 0 186 111 286 210 125 123 164 198 157 293 -17 211
-230 316 -393 192 l-45 -35 -45 35 c-72 54 -150 68 -229 40z m168 -108 c18
-14 43 -47 55 -72 35 -75 69 -73 108 7 60 126 216 128 279 6 41 -79 8 -171
-100 -281 -65 -66 -218 -187 -236 -187 -18 0 -177 126 -240 190 -37 38 -77 88
-89 112 -47 99 -12 209 79 247 40 17 106 7 144 -22z"/>
<path d="M2630 3764 c-8 -20 -7 -32 5 -50 30 -47 79 -21 73 38 -3 29 -7 33
-36 36 -27 3 -34 -1 -42 -24z"/>
<path d="M2028 3729 c-26 -15 -24 -75 2 -89 31 -17 70 12 70 51 0 11 -37 49
-47 49 -5 0 -16 -5 -25 -11z"/>
<path d="M2022 3258 c-7 -7 -12 -24 -12 -38 0 -51 48 -68 75 -26 31 47 -24
103 -63 64z"/>
<path d="M2546 2644 c-32 -31 -14 -84 29 -84 27 0 45 18 45 46 0 25 -24 54
-45 54 -7 0 -21 -7 -29 -16z"/>
<path d="M2542 2178 c-28 -28 -3 -88 37 -88 25 0 41 20 41 50 0 31 -17 50 -45
50 -12 0 -26 -5 -33 -12z"/>
<path d="M802 328 c-19 -19 -14 -45 10 -62 18 -13 54 -16 183 -16 184 0 203 4
211 36 13 50 -3 54 -205 54 -132 0 -191 -4 -199 -12z"/>
<path d="M2712 78 c-7 -7 -12 -21 -12 -33 0 -44 8 -45 335 -45 327 0 335 1
335 45 0 12 -5 26 -12 33 -17 17 -629 17 -646 0z"/>
</g>
</svg>
