<?xml version="1.0" standalone="no"?>
<!DOCTYPE svg PUBLIC "-//W3C//DTD SVG 20010904//EN"
 "http://www.w3.org/TR/2001/REC-SVG-20010904/DTD/svg10.dtd">
<svg version="1.0" xmlns="http://www.w3.org/2000/svg"
 width="512.000000pt" height="512.000000pt" viewBox="0 0 512.000000 512.000000"
 preserveAspectRatio="xMidYMid meet">

<g transform="translate(0.000000,512.000000) scale(0.100000,-0.100000)"
fill="#000000" stroke="none">
<path d="M3622 5109 c-19 -6 -53 -29 -77 -53 -79 -80 -81 -179 -5 -342 39 -84
105 -189 135 -214 15 -12 28 -11 105 8 177 46 284 100 344 175 41 51 49 152
18 213 -47 92 -151 137 -239 103 -20 -7 -29 -7 -31 1 -9 27 -70 84 -107 101
-44 20 -91 23 -143 8z m141 -120 c20 -21 27 -40 27 -68 0 -66 47 -93 86 -50
27 31 81 51 115 44 16 -4 40 -21 55 -38 22 -27 25 -38 22 -79 -4 -33 -13 -57
-29 -74 -31 -34 -145 -87 -239 -114 l-75 -20 -23 27 c-12 16 -44 70 -69 121
-35 70 -48 107 -51 151 -4 54 -2 61 27 94 49 55 106 58 154 6z"/>
<path d="M1831 5020 c-128 -37 -237 -73 -241 -80 -9 -14 -17 -120 -26 -331
l-7 -156 -61 4 c-52 4 -66 2 -95 -19 -78 -53 -100 -129 -59 -208 25 -48 89
-90 138 -90 46 0 113 42 137 85 19 36 23 68 37 344 9 167 17 305 18 306 8 6
370 106 373 103 2 -2 -1 -68 -5 -148 -5 -80 -9 -168 -9 -197 l-1 -52 -32 10
c-98 29 -198 -48 -198 -152 0 -93 79 -165 172 -157 62 6 97 31 124 89 20 40
24 76 38 368 12 241 13 327 5 337 -19 23 -64 15 -308 -56z m173 -542 c23 -32
20 -55 -10 -84 -19 -20 -31 -24 -52 -19 -78 18 -66 125 14 125 23 0 38 -7 48
-22z m-486 -124 c45 -31 18 -114 -37 -114 -63 1 -87 62 -43 113 19 21 51 22
80 1z"/>
<path d="M2748 4939 c-24 -14 -22 -48 6 -112 27 -62 38 -71 71 -63 37 9 40 44
10 111 -33 75 -49 87 -87 64z"/>
<path d="M3033 4785 c-62 -28 -79 -53 -57 -83 20 -29 47 -27 114 6 58 28 74
58 50 88 -17 20 -46 17 -107 -11z"/>
<path d="M2654 4626 c-59 -27 -68 -38 -60 -71 9 -37 41 -40 112 -10 67 28 83
50 64 85 -14 26 -51 25 -116 -4z"/>
<path d="M2895 4554 c-17 -18 -15 -30 18 -107 23 -55 47 -73 76 -57 33 17 34
45 2 114 -25 56 -34 66 -55 66 -13 0 -32 -7 -41 -16z"/>
<path d="M4640 4332 c-24 -8 -30 -24 -30 -87 0 -92 41 -134 85 -85 15 17 16
28 9 86 -9 69 -31 98 -64 86z"/>
<path d="M3981 4186 c-7 -8 -11 -30 -9 -48 4 -45 47 -68 83 -44 32 21 40 52
21 81 -19 29 -75 35 -95 11z"/>
<path d="M2605 4080 c-24 -26 -14 -56 36 -107 43 -45 77 -55 99 -28 18 22 5
55 -43 108 -48 52 -65 57 -92 27z"/>
<path d="M4831 4091 c-46 -8 -66 -39 -45 -69 13 -19 25 -22 77 -22 72 0 107
18 107 55 0 41 -47 53 -139 36z"/>
<path d="M4390 4052 c-18 -14 -21 -25 -16 -45 8 -34 39 -42 112 -31 69 11 93
36 68 72 -13 19 -25 22 -78 22 -47 0 -70 -5 -86 -18z"/>
<path d="M3391 3919 c-41 -55 -55 -127 -49 -246 6 -124 26 -164 73 -147 29 11
35 39 24 101 -16 85 -7 173 25 229 29 51 32 74 14 92 -24 24 -57 13 -87 -29z"/>
<path d="M4646 3908 c-21 -34 -8 -146 19 -163 13 -9 28 -10 43 -4 20 8 22 15
22 82 0 59 -4 77 -18 90 -26 23 -49 21 -66 -5z"/>
<path d="M2978 3889 c-27 -15 -22 -46 21 -150 21 -52 53 -129 71 -171 20 -48
39 -79 50 -83 27 -9 60 12 60 38 0 30 -129 349 -148 365 -19 14 -31 15 -54 1z"/>
<path d="M3692 3774 c-43 -30 -20 -104 32 -104 52 0 78 52 45 93 -23 31 -45
34 -77 11z"/>
<path d="M1400 3775 c-8 -2 -49 -9 -90 -15 -205 -32 -537 -143 -745 -247 -95
-48 -384 -253 -400 -283 -41 -80 15 -181 102 -180 72 1 374 89 540 159 95 39
207 81 250 92 101 27 295 36 401 19 291 -46 557 -223 705 -468 30 -49 226
-503 523 -1208 261 -621 491 -1157 510 -1191 203 -364 635 -537 1024 -411 387
125 628 472 607 873 -3 61 -14 139 -23 175 -9 36 -198 500 -421 1032 -260 622
-407 987 -413 1023 -11 69 0 137 34 202 31 59 59 90 122 138 60 45 69 66 45
97 -17 21 -22 21 -68 11 -27 -7 -330 -131 -673 -277 l-623 -264 -68 101 c-212
320 -466 505 -813 594 -89 22 -125 26 -306 29 -113 1 -212 1 -220 -1z m337
-96 c298 -33 522 -139 733 -349 110 -108 246 -287 238 -312 -2 -5 -69 -37
-148 -70 -171 -72 -190 -83 -190 -113 0 -40 19 -45 132 -39 85 6 115 4 160
-10 73 -23 146 -80 184 -143 16 -28 203 -464 414 -968 409 -977 403 -963 450
-920 11 10 20 24 20 30 0 30 -784 1874 -817 1923 -20 29 -52 65 -72 81 -42 33
-134 81 -155 81 -42 0 -15 21 72 57 53 22 311 131 572 243 261 111 506 215
544 231 l68 29 -15 -24 c-31 -47 -57 -144 -57 -215 0 -89 13 -128 149 -450 61
-145 111 -270 111 -276 0 -7 -78 -45 -172 -85 -95 -39 -183 -78 -195 -86 -37
-24 -25 -84 17 -84 8 0 100 36 204 80 104 44 191 79 192 77 14 -14 104 -251
97 -258 -4 -4 -84 -40 -178 -79 -93 -39 -180 -78 -192 -86 -32 -20 -30 -61 2
-76 22 -10 49 -1 221 71 108 45 197 81 198 79 16 -22 104 -254 99 -259 -5 -4
-87 -40 -183 -80 -96 -40 -183 -80 -194 -90 -23 -21 -15 -65 14 -74 12 -4 87
22 212 75 105 44 195 77 199 73 17 -19 223 -525 241 -593 28 -106 28 -285 -1
-395 -95 -357 -420 -592 -791 -572 -126 7 -199 26 -303 78 -151 75 -269 191
-346 339 -22 41 -245 563 -496 1160 -252 597 -472 1114 -490 1150 -232 459
-783 699 -1278 555 -45 -13 -83 -22 -85 -20 -1 1 -18 39 -37 83 -21 50 -30 84
-24 88 6 3 55 21 110 40 281 95 533 129 766 103z m-937 -269 c18 -45 31 -83
28 -85 -7 -7 -191 -85 -194 -82 -1 1 -16 37 -34 80 -21 50 -29 82 -23 88 12
12 164 79 179 79 6 0 25 -36 44 -80z m-286 -126 c15 -37 25 -69 22 -71 -2 -3
-64 -20 -138 -38 -108 -28 -135 -32 -146 -21 -7 7 -10 19 -7 27 5 12 221 167
236 168 3 1 18 -29 33 -65z"/>
<path d="M2626 2484 c-21 -21 -20 -57 2 -77 24 -22 55 -21 75 1 34 37 11 92
-38 92 -13 0 -31 -7 -39 -16z"/>
<path d="M2777 2122 c-22 -24 -21 -55 1 -75 37 -34 92 -11 92 38 0 50 -60 73
-93 37z"/>
<path d="M2930 1760 c-24 -24 -25 -38 -4 -68 35 -51 117 -8 95 50 -16 42 -59
50 -91 18z"/>
<path d="M3092 1404 c-51 -36 -8 -117 51 -95 47 18 47 78 1 99 -31 15 -25 15
-52 -4z"/>
<path d="M3226 1084 c-9 -8 -16 -23 -16 -32 0 -20 185 -469 201 -489 24 -28
79 -9 79 28 0 26 -197 491 -212 500 -20 13 -35 11 -52 -7z"/>
<path d="M4522 801 c-8 -4 -24 -38 -37 -75 -13 -36 -39 -89 -60 -117 -41 -58
-44 -97 -7 -110 33 -12 84 38 128 125 40 82 53 148 34 171 -14 17 -38 19 -58
6z"/>
<path d="M4214 429 c-136 -110 -318 -129 -496 -51 -56 24 -59 24 -78 7 -43
-39 -19 -71 81 -109 181 -68 364 -50 516 51 70 46 90 75 75 108 -16 34 -51 32
-98 -6z"/>
<path d="M2555 3727 c-22 -35 -8 -60 43 -75 68 -21 147 -114 220 -259 31 -61
54 -79 86 -67 34 13 29 50 -18 141 -82 159 -188 265 -279 280 -30 4 -38 1 -52
-20z"/>
</g>
</svg>
